<svg xmlns="http://www.w3.org/2000/svg" viewBox="0 0 1734.5 1651.38"><defs><style>.cls-1{fill:#f8f8f8;}</style></defs><g id="Layer_2" data-name="Layer 2"><g id="svg5"><ellipse cx="867.25" cy="825.69" rx="867.25" ry="825.69"/><g id="g2556"><path id="path2560" class="cls-1" d="M275.84,810.88V267.28H1378.6V1354.47H275.84Z"/><path id="path2558" d="M266.66,818.61V245.41H1413.08V1391.82H266.67Zm799.41,484.1a103,103,0,0,0,23-6.8l4.15-1.93-5.61.47-5.61.48,2.68-3.91c7-10.11,3.68-16.93-10.12-21-2.28-.67-4.28-1.09-4.44-.93s.94,1.62,2.44,3.25c6.34,6.84,9.53,14.18,8.51,19.59-.41,2.23-1,2.95-2.6,3.38-1.13.3-10.49.54-20.79.54-16.21,0-19.72-.22-26.14-1.61-22.38-4.88-24.81-15.07-8-33.71,2.75-3.06,2.93-3.53,2.44-6.5-2.74-16.57-25.53-64.32-59.07-123.75-4.69-8.3-9.91-17.76-11.62-21-3.2-6.12-12.82-21.78-14.06-22.89-.38-.34.78,2.13,2.59,5.49,12.13,22.51,16.46,30.87,23.43,45.24,25.44,52.42,39.74,92.05,41.33,114.55.43,6.13.37,6.47-1.9,10-5.92,9.28-7.59,19.52-4.21,25.9,1.94,3.68,6.59,8,10.86,10.23s15.27,5.22,21.84,6.1,22.35.31,30.93-1.17Zm44.86-15.39c4-8.2.22-13.72-11.91-17.31-4.53-1.35-5.46-1.18-3.62.66,7.91,7.91,11.46,16.51,9.35,22.64l-1.09,3.17,2.65-2.57a28.34,28.34,0,0,0,4.62-6.59Zm-54.84.54c3.62-4.51,5.66-9.55,5.09-12.6-.7-3.73-5.4-7.6-11.55-9.5a49.45,49.45,0,0,0-5.85-1.57c-.41,0,.8,1.72,2.7,3.83,4.89,5.45,7.39,10.8,7.39,15.86a16.48,16.48,0,0,1-.79,5.58c-1.37,2.56.43,1.6,3-1.6ZM1169,1277.67c1.5-16.9-7.84-32.57-23.82-40-5.73-2.65-7.6-5.27-9.81-13.8-6.88-26.57.53-86.36,21.34-172.18,4.9-20.2,7.29-32,7.24-35.83,0-2,0-2-1.14-.09a59.87,59.87,0,0,0-3.08,8.4c-4.52,14.87-5.78,18.81-6.47,20.26-3.34,7-19.7,73.25-25.55,103.44-6.86,35.42-7.47,67.74-1.63,86.16,3.56,11.22,7.8,16.24,19,22.48a64.12,64.12,0,0,1,10.7,8.47c7.08,6.93,9.91,12.29,10.44,19.81l.36,5,1-3.33a55.91,55.91,0,0,0,1.48-8.79Zm-374.17,6.12a47.36,47.36,0,0,0-5.16-3.72c-30.65-20.46-52.55-47.56-53-65.53-.06-2.71-.06-2.71-.82-.41-1.3,3.93-1,19.29.41,24.83C742,1261,758,1275,786,1282.2c6.78,1.76,8.79,2.12,8.79,1.59Zm57.89-15.37c.33-5.22.13-6.78-1.29-10.08-3.8-8.82-12.32-12.87-28.7-13.63l-8.41-.4,6.48,1.53c15.16,3.57,23.77,11.22,27.12,24.1a42,42,0,0,1,1.24,8l.06,3.47,1.56-3.4a29.39,29.39,0,0,0,1.94-9.56Zm28,7.37c1.84-6.56,1.62-13.45-.57-18.1-4-8.5-12.31-12.25-28.75-13l-8.79-.4,6.53,1.45c13,2.86,20.86,8.39,25.59,18a27.2,27.2,0,0,1,3.18,11c.25,3,.71,5.53,1,5.53s1.12-2,1.8-4.45Zm23-3.91c2.65-9,1.21-16.85-4.12-22.3s-15.64-8.41-28.92-8.27l-5.1.06,6.53,1.37c8.9,1.88,14.77,4.82,19.87,9.93a29.83,29.83,0,0,1,9.12,21.41C901,1278.29,902,1277.48,903.62,1271.88ZM833,1227.51a93.32,93.32,0,0,0,14.14-4.94c21.74-10.68,35.12-35.56,39.49-73.41,1.21-10.47,1.2-41,0-54.26-2.86-31-5.39-42.63-15-69.17C841.57,943,798,899.39,750.9,904.86a102.44,102.44,0,0,0-13.12,2.42c-5.49,1.57-17.37,6.13-17,6.52a44.53,44.53,0,0,0,6.71-1.76c5.91-1.82,7.66-2,19.49-2s13.54.16,19.7,2.05c26.44,8.09,48.19,29.25,65.64,63.83,14.88,29.48,25.75,66.38,33.93,115.15,2.81,16.81,2.81,16.81,2.39,36.68-.44,21-1.41,30.24-4.74,45.09-5.89,26.24-17,43.77-32.7,51.71-10.93,5.52-29.59,4.88-48.65-1.65a39.75,39.75,0,0,0-6.73-2c-.39.39,12,4.76,17.53,6.2,7.7,2,18.87,3.33,25.09,3a94.23,94.23,0,0,0,14.52-2.62Zm253.29-54c1.08-6.23,2.15-14.76,2.38-19s.76-11.25,1.17-15.67c4.2-44.52-1.19-83.79-13.47-98.21-2-2.29-2-2.29-1.49-.11,1.61,7.53,6,35.3,7.6,47.88,3.18,25.34,3.87,35.56,3.83,56.94,0,17.37-.3,22.21-1.68,30.57-2.69,16.26-2.64,15.83-1.38,12.09.59-1.76,2-8.29,3-14.52Zm-693.61,3.72c-16.45-8.26-25.27-18.64-24.12-28.37.66-5.56,3.12-9.73,9.29-15.72,6.92-6.71,18.71-13.85,29.73-18,16.24-6.1,41-11.39,66.21-14.14,16.53-1.8,49.35-2.31,66.06-1,7.59.58,14.5,1,15.34.92,4.53-.44,46.27,4.66,63.82,7.79,5.67,1,14.78,2.4,20.25,3.08s11.48,1.56,13.37,2c6.84,1.42,8.89,1.62,7.54.75s-15.35-3.56-34.67-6.6c-7.14-1.12-15.4-2.53-18.34-3.13-8-1.65-37.47-5.24-64.2-7.83-14.76-1.43-46-2.4-65.35-2-53.39,1.06-80.17,5.12-101.51,15.41a44.19,44.19,0,0,0-13.2,9.24c-6.78,6.48-9.41,11-12.2,21.21-3.24,11.82-1,22.63,6,28.74,7.19,6.32,20.76,10.32,35.72,10.55l6.1.1ZM725,1162c-21.09-30.23-33.88-68.62-34.35-103.09-.08-5.61-.34-10.21-.58-10.21-1.07,0-6.29,10.14-8,15.67-7.36,23.12,1.08,51.16,23.93,79.48,5.46,6.77,21.87,24.08,22.82,24.08.2,0-1.49-2.67-3.77-5.93Zm302.5-110.32c-1.69-6.71-2.35-32.76-1.13-44.75,2.48-24.5,9.63-55.66,20-87.26,2.12-6.45,3.69-11.88,3.5-12.07-.66-.66-9.85,10-14,16.23-18.25,27.41-23.14,68.4-13.31,111.61,2.2,9.68,5.51,21.77,5.86,21.42.17-.16-.25-2.49-.93-5.18Zm-109.14-8.46c-11.18-18.81-16.61-42.23-15.54-67.13.59-13.88,2.46-25.19,5.19-31.46,2.62-6,4.87-15.13,6.11-24.71,1.25-9.76,1-41.79-.4-58.09-1.34-15.26-4.62-42.43-5.76-47.76-.74-3.44-.74-3.44-.38.76,2.08,23.77,2.15,36.24.29,54.65A269.44,269.44,0,0,1,895,927.14c-5.44,16-5.89,18.73-5.77,35.54.23,33.74,7.4,60,21,77,3.64,4.54,11.35,11.57,12,10.93C922.42,1050.44,920.65,1047.1,918.31,1043.18Zm248.23-35.72c17.52-10,39.8-31.33,54.83-52.42a223.9,223.9,0,0,0,19.79-32.87c19.43-38.33,30.17-79.93,34.41-133.36,1.69-21.23.79-73.37-1.52-88.62-.34-2.19-.72,3.17-1,14.48-2.11,75.59-19.83,152.83-48.06,209.41-17.93,36-35.54,59.43-63.33,84.39-4.89,4.39-4.91,4.43-1.53,2.58,1.9-1,4.79-2.65,6.44-3.59Zm-57.26-6.67c8.18-1.56,13.78-3.49,22.93-7.91,12.25-5.92,19.47-10.92,34.54-23.9,7.41-6.39,24.75-24.09,25.35-25.88.16-.46-1.9.86-4.58,2.94a232.36,232.36,0,0,1-40.2,24.37c-12.64,5.91-12.73,5.94-21.23,9a158.64,158.64,0,0,1-54.78,9.69c-8.66,0-12,.24-11.66.84,1.17,1.89,10,6.82,16.21,9.09C1086,1002.65,1096.51,1003.22,1109.28,1000.79ZM679.39,929c5.24-20.35,18.35-48.66,37.47-81,8.26-14,13.92-23.77,19.85-34.39C751,788,761.08,773,788.39,736.39c17-22.76,43.79-44.62,74.06-60.43,10.12-5.29,22.35-10.79,28.55-12.85,7.52-2.5,3.37-2-9.17,1.18-28.22,7.07-53.49,18.69-74.32,34.18-23.09,17.16-48.93,48.94-75.93,93.39-34.46,56.73-48,85.92-54.46,117.11-3.06,14.91-3.81,31.95-1.81,41.1.49,2.21.69,1.39,1.17-4.7A116.62,116.62,0,0,1,679.39,929Zm227.5-121.65c-.19-.74-.36-.32-.38.94s.15,1.87.35,1.36a4.33,4.33,0,0,0,0-2.3Zm59.72-124.77c-5.08-3.36-14.46-13-19-19.55-5.08-7.35-11.67-21.13-14-29.37-5.33-18.59-6.51-43.21-3.14-66,.31-2.12.11-1.94-1.53,1.39-2.88,5.85-6.41,17.22-7.77,25-1.83,10.5-1.11,26.79,1.63,36.47,4.15,14.73,13.6,29.27,26,40,6.24,5.39,18.94,14.27,20.43,14.27.46,0-.71-1-2.61-2.28Zm115.62-1.65c4.67-2,11.91-7.15,9.09-6.46-12.62,3.11-27.65,3.51-32.87.89-2.67-1.35-2.67-1.35.48,1.87,6,6.07,14.61,7.44,23.3,3.7Zm171.5-20.23c13.79-8.31,27.31-22.78,34.2-36.6s9.68-25.28,10.26-42.41c.49-14.1-.56-23.78-4.19-38.6l-2.06-8.41-.51,17.2c-1.16,38.67-9.08,69.07-23.6,90.64-4,6-12.4,15-17.54,18.9-3.84,2.91-1.93,2.51,3.44-.72Zm-194.08-15.25c5.38-3.23,8.44-6,10-9.08,1.18-2.26,1.18-2.26,3,1.24,2.34,4.6,5.58,7.22,10.79,8.74,5,1.44,8.29,1.15,13.83-1.24,4.65-2,4.8-3.08.17-1.23s-7.64,1.55-11.52-.92c-8.92-5.68-16-19.09-16-30.28,0-2.19-.3-3.39-.77-3.1s-.76,2.35-.76,4.64c0,3-.9,6.6-3.15,12.75-4,10.9-6.07,15-9.33,18.45s-2.05,3.51,3.74,0Zm-65.39-4.92,3.52-3c3.16-2.62,19.87-8.89,25.52-9.58a14.51,14.51,0,0,0,2.67-.46,9.37,9.37,0,0,1,2.1-.44l4.21-.59c1.15-.16,3.39-.33,5-.38,2.62-.08,2.86-.27,2.86-2.28s-.31-2.24-2.86-2.61c-4.87-.7-11.83.11-19.3,2.25-6.73,1.93-9.51,3.29-16.43,8a67.45,67.45,0,0,0-9.66,9.17c-2,2.78-1,2.72,2.4-.15Zm153.46-10.89c-4.58-3.8-5.69-4.58-8.25-5.8a16.23,16.23,0,0,1-3.06-1.72c-.86-1-9.47-3.77-14.29-4.54-5.23-.83-14.32-1-17.81-.33-1,.21-3,.58-4.43.84-2.29.42-2.51.69-2.3,2.86s.44,2.36,2.53,2.08c5.86-.8,20-.3,29.18,1,6,.87,16.35,4.79,17.5,6.65a2.22,2.22,0,0,0,1.7.66c1,0,.8-.41-.77-1.72ZM973.48,617.26a21.38,21.38,0,0,1,6.69-3.82l6.2-2c5-1.63,25.15-2.4,31.2-1.19,1.26.25,4.52.81,7.26,1.24s7.29,1.34,10.14,2,5.34,1.08,5.54.88a9.71,9.71,0,0,0,.82-2.7c.47-2.34.47-2.34-6.31-3.9q-29.43-6.76-45.67-2.43c-10.13,2.71-11.11,3.26-17.63,9.9-3.08,3.14-3.68,4.62-1.88,4.62.4,0,2-1.19,3.64-2.64Zm136.61-7.35c12.25-4.2,24.34-6.56,34.42-6.71a88.57,88.57,0,0,1,13.3.66c2.31.44,4.94.93,5.83,1.08a15.19,15.19,0,0,1,6.93,3.69,3.34,3.34,0,0,0,2.9,1.06c2.14-.82-4.94-7-11.07-9.71-3-1.31-13.65-3-18.86-3-8.33,0-29.29,5-40.22,9.54-2.85,1.19-2.85,1.19-1.68,3.47a10.17,10.17,0,0,0,1.4,2.28c.12,0,3.29-1.06,7-2.35ZM1065.27,599c-.18-.16-3.13-2.38-6.58-4.93s-6.63-5.33-7.09-6.19c-1.14-2.13-2.56-2-1.9.15,1.82,6,3.83,8.22,9.34,10.19,2.63.94,7,1.48,6.23.78Zm20.4-10.11c2.47-1.59,8.27-4.86,12.88-7.27,7.73-4,8.21-4.41,6.24-4.9-3.32-.84-9.16.15-13.74,2.31-5,2.38-12.86,10.4-16.1,16.48l-2.23,4.18,4.22-3.95a73,73,0,0,1,8.73-6.85ZM1032.4,553a25.73,25.73,0,0,0,12.29-14.64c2.84-9.19,2.19-10.9-5.44-14.27-6.69-3-12.66-3.82-22.73-3.28-13.49.72-13.42.7-15.31,5.63-4.53,11.83,1.09,23.61,13.45,28.22,4.71,1.75,12.88,1,17.74-1.66Zm-16.5-3.59a14.82,14.82,0,0,1-2.68-9.37c0-5.49,1.25-10.61,3.43-13.75,2.9-4.15,3.73-4.13,5.52.16a22.53,22.53,0,0,1-1.81,20.66c-2.08,3.32-3.38,4-4.46,2.3Zm44.13-7.17c5.35-10.61,3.06-18.12-7.11-23.31-1.67-.85-2.9-1.26-2.74-.92l3.14,6.34c3.74,7.53,3.88,12.61.55,20.92a36.93,36.93,0,0,0-2.29,7.13c0,2.17,5.66-4.63,8.45-10.16Zm96.64,8.24c6.28-3,12.16-9.43,13.84-15.22,1.36-4.68,1.9-10,1.25-12.51-.88-3.38-13.27-6.5-23-5.81a89.16,89.16,0,0,0-20.06,4.45c-2.39,1-3.77,4.86-3.84,10.88C1124.67,546.92,1142.54,557.15,1156.67,550.47Zm-15.43-4.13c-3.06-4.75-3.77-8.77-2.58-14.5,1-4.7,4.92-11.58,6.37-11.1s4.15,5.76,4.69,9.12c.62,3.88-.59,8.4-3.59,13.42-2.4,4-3.74,4.85-4.89,3.06Zm-25.78-3.11c-2.9-11.14,2.53-26.52,11.56-32.73,7.31-5,16.53-8,33.81-10.94,6.5-1.1,12-2.16,12.17-2.35s-3.58-.36-8.37-.35c-26.28,0-45.14,7.9-51.94,21.72-2.91,5.9-3.43,9.35-2.34,15.34.78,4.28,5.18,14.64,5.9,13.92.18-.18-.18-2.26-.79-4.61ZM940.71,523.6c2.79-6.9,8.46-17.42,11.92-22.12s5.27-6.2,11.44-9.57c3-1.63,3.32-2,1.52-1.58-2.57.55-4.83,2-13.51,8.88-12.89,10.15-19.71,22.69-19.71,36.24,0,8.92.71,9,3.81.29,1.56-4.36,3.6-9.83,4.53-12.14ZM1055,478.32c-7.78-16.23-12-31.93-12.1-44.52,0-8.11,1.35-14.54,4.21-19.44.93-1.6,1.09-2.27.42-1.71-2,1.66-6.64,11.86-8.19,18-4.36,17.3.51,34.15,14.91,51.6,2.1,2.55,4.06,4.64,4.35,4.64s-1.33-3.86-3.6-8.59Zm58.86-18c0-12.93.27-28.64.59-34.91s.42-11.26.23-11.07c-.58.59-4.89,18.25-6.23,25.53-1.93,10.54-2.32,27.92-.77,34,1.14,4.43,4.28,10,5.65,10,.29,0,.53-10.58.53-23.5Zm-174.09,6.11c-.67-13.54-3.69-23.35-9.85-32-2.84-4-10.79-23.57-12.87-31.71-3.27-12.79-2.7-19.53,1.89-22.54,3.12-2,9.41-1.05,16.84,2.64,12.79,6.37,64.89,36.62,76.63,44.5a39.84,39.84,0,0,0,5.54,3.41c0-1.13-32.05-25.33-45.09-34.05-24-16-42.6-24.8-54.78-25.78l-5.47-.44-1.6,5.18c-6.89,22.29-2,45.87,15.19,72.61C932,457.4,937,467,938.51,472.2c.53,1.79,1.13,3.25,1.33,3.25s.18-4-.07-9Zm186.88-32a80.74,80.74,0,0,0,32.31-16.9c7.33-6.25,10.7-10.62,19.68-25.54,13.33-22.12,26.08-38.58,40.81-52.67,9.3-8.9,18.56-15.56,23.42-16.87,12.23-3.3,24.32,9.34,32.23,33.7,1.36,4.21,2.64,7.82,2.83,8,1.38,1.38-1.34-20.51-3.37-27.13-4.51-14.75-14.14-24.86-23.46-24.63-12.29.31-31,12.11-47.58,30.05-15.77,17.06-36.7,46.32-44.85,62.71-7.17,14.43-17.1,23.05-33,28.61-5.86,2.05-5.48,2.32.94.66Z"/></g><path id="path4874" d="M1037.6,1012c7.22,2.08,13.94,5.44,20.55,9,4.22,2.38,2.28,2.21,7.13-1.92l-4.61,2.68h0c12.3-5.66,5.5-1.67,4-2.26a24,24,0,0,1-2.36-1.23c-3.52-1.79-7-3.69-10.62-5.3-3.19-1.43-6.53-2.56-9.78-3.88l-4.32,3Z"/><path id="path4876" d="M1041.33,1021l3.32.52a62.7,62.7,0,0,1,7,1.37c4,1,8,2.29,11.93,3.58l4.05-2.75h0a148.06,148.06,0,0,0-15.53-4.51c-1.12-.22-2.26-.37-3.38-.56l-3.22-.59-4.2,2.94Z"/><path id="path4878" d="M1047.34,1024.1a25.36,25.36,0,0,1,7.36,1.54l4.31-2.89h0c-.56-.23-1.1-.49-1.67-.69a32.15,32.15,0,0,0-5.69-1Z"/><path id="path4880" d="M1044,1022.53a45.29,45.29,0,0,1,8.08,2.34c1.07.42,2.11.9,3.15,1.38l4.41-2.93h0c-1.06-.46-2.12-.93-3.19-1.38a53,53,0,0,0-8.12-2.41l-4.33,3Z"/><path id="path4882" d="M1041.92,1024.2c2.89,1,5.86,1.64,8.8,2.41l4.2-2.89h0a69.19,69.19,0,0,1-8.59-2.5l-4.41,3Z"/></g></g></svg>