<svg xmlns="http://www.w3.org/2000/svg" viewBox="0 0 854.97 800.14"><defs><style>.cls-1{fill:#fff;fill-rule:evenodd;}</style></defs><g id="Layer_2" data-name="Layer 2"><g id="Layer_1-2" data-name="Layer 1"><path class="cls-1" d="M533.78,778.37v.84c0,4.1,1.77,18.09-3.73,19.26-5.26,1.11-6.09-14.06-6.4-17.27-1.63-17-3.13-32.78-1.73-49.9.28-3.43-.46-6.78,3-8.73l.8-.45.65.63c2.51,2.42,5,19.14,6.23,29.26,0-1.32.09-2.64.12-3.85.13-4.38.3-8.75.44-13.12.1-2.81.8-19.3.15-21-2.52-1.49-25,4.73-29.1,5.5-13.34,2.5-27.87,8.45-40.25,13.89-12.74,5.59-25.17,11.76-37.59,18-16.16,8.09-31.4,17.81-47.43,26.14-7.84,4.08-15.42,8.58-23.33,12.6-6.33,3.21-20.89,10.47-28,9.3l-1.51-.25.6-1.38c1.91-4.34,19.39-13.64,24.16-16.73,16.32-10.55,33.22-20.22,50.14-29.82a449.46,449.46,0,0,1,83.95-36.38c10.45-3.37,21.21-5.46,31.8-8.32,9.07-2.45,21.4-4.07,29.56-8.85a56.52,56.52,0,0,0-3.37-7.76c-2.18-4.45-4.53-8.84-6.9-13.2-3.71-6.81-7.59-13.54-11.29-20.36-11.77-21.69-23.42-43.53-33.22-66.16A387.48,387.48,0,0,1,468.55,520c-2.15-9.66-2.43-18.75-2.65-28.57-.12-5.34-.62-10.7,0-16,2.56-21.88,8-42.63,18.42-62.28,3.65-6.91,8-13.45,12.19-20.06s9.32-12.24,13.48-18.69,7.35-14.17,13-19.59c2.81-2.71,17.1-12.23,20.79-11.46l1.3.28-.41,1.24c-.88,2.68-10.92,14.61-13.09,17.28-4.34,5.3-8.74,10.73-13.27,15.87-4.85,5.51-8.45,10.79-12.8,16.58a75.31,75.31,0,0,0-8.34,17.58c5.32-2.81,18.82-15.11,21.69-14.54l.53.11.26.44a1,1,0,0,1,.3.27l1.18.85-1.15.56a1.11,1.11,0,0,1-.28.29c-.83,2-3.95,5-5.5,6.65-3.57,3.79-13.42,15.48-15.24,21.43,5.47-.79,18.37-5.49,22.18-7.19a317,317,0,0,0,31-15.59c10.19-6,20-12.72,29.79-19.31,25.3-17,51.19-33.79,75.37-52.3,12.08-9.25,24.23-18.42,36-28,5.83-4.75,11.25-10,17.06-14.73,10-8.19,24.06-22.06,29.84-33.44,1.76-3.45,4.43-6.16,1.21-9.65q-3.76-4.1-7.39-8.32c-7.93-9.27-26.47-27.07-23.43-40.16l.38-1.66,1.46.93c3.33,2.15,6.63,8.95,9.15,12.28,1.56,2,2.79,4.35,4.32,6.42s2.61,4.24,4,6.27c5.18,7.35,14,17.88,24.38,15.38,2.44-3.64-1.27-9.85-3.66-12.64-3.12-3.63-6.25-7.29-9.1-11.13-5.82-7.88-10.14-16.53-15.77-24.43a15.86,15.86,0,0,1-1-1.5c-1.69-2.93-3-8.75-7.18-6.94a29.94,29.94,0,0,0-3.14,2c-2.33,1.53-4.64,3.09-6.95,4.66q-10,6.79-20,13.69c-9.87,6.81-19.84,13.59-29.6,20.55-15.57,11.09-29.76,23.87-44.33,36.17-22,18.57-44.33,36.92-69.42,51.43-9,5.17-21,9.3-31.39,9.83-13.24.67-23.43-2.82-36.15-4.73-18.85-2.83-14,4.19-22.07,15.4-10.11,14-47.5,30-63.92,37.89-3.54,1.7-10.36,6.08-14.28,4.76l-1-.34.23-1c.55-2.54,6-6.24,8-8.18,2.89-2.82,5.71-3.57,2-7l-14.8-15.15c-5.64-5.51-10-9.83-14.29-16.49a7.94,7.94,0,0,1-1-2.16c-1.06-3.63-.43-5.77-2.46-9.67-.64-1.23-3.8-7.73-5.43-7.9-1-.11-3.48,1.89-4.24,2.44L329.7,319.05c-1.26,1.05-5.84,4-6.37,5.36a3,3,0,0,0,.09,2c3.79,12.1,21.43,31.94,31.5,40,2.19,1.75,4.15,2.4,3.82,5.69l-.07.76-.75.25c-4.52,1.45-6.44-.37-9.42-3.37-2.18-2.2-4.48-4.27-6.47-6.65-7.73-9.22-14.25-19.84-22.16-28.75-.68-.77-2.39-3-3.29-3.41-1.82-.78-10.7,3.24-12.44,3.95-10.69,4.31-21.2,10-31.11,15.82-11.92,7-23.56,14.47-35,22.18-20,13.46-39.47,27.68-58.59,42.26-9.68,7.37-19.63,14.4-29.26,21.84-4.8,3.71-9.44,7.67-14.38,11.21-3,2.14-12.19,10.51-15.7,9.71l-1-.22,0-1c.16-4.09,8-13.76,11-16.91,4.33-4.65,9-9.18,13.56-13.59S153.18,417,158.17,413c2.56-2.08,10-8.7,12.54-12-3.44-1.85-12.24-4.06-15.47-5.22-11.51-4.13-22,4.55-30.73,10.69l-9,7.19c7.22-3,20.62-9.24,22.31-8.15l.17.11.13.17c2.16,2.83-3,14.28-5.16,16.69-3.85,4.25-12.9,8.18-18.09,11.09-7.33,4.12-14.36,9.11-18.14,16.75-5.25,10.64-6.11,23.3-3.62,34.76,1.27,5.82,2.11,11.61,3.9,17.33,1.41,4.53,5.75,11.33,6.24,15.56l.17,1.52-1.55-.22c-8.22-1.2-12.33-12-14-18.87-1.61-6.52-2.38-16.68-5-23-1.84,2.1-3.2,7.56-3.61,9.48-1.1,5.1-.68,8.69-.27,13.79,1.81,22.1,26.29,41.59,46.18,48.79,18.62,6.74,33.72,8,51.55-1.72,11.75-6.43,21-16.5,31.4-24.77,1.11-.89,2.79-1.17,2.53-2.27-3.54-2.16-8.63,2.43-11.4,4.26-3.8,2.51-7.32,5.38-11.31,7.63a65.63,65.63,0,0,1-13.47,6.22c-2.8.87-13.65,3.86-16,2.79l-.64-.29-.06-.68c-.38-4.07,23.18-17.88,27.33-20.82,9.27-6.59,18.89-12.69,28-19.49s18.86-12.67,27.78-19.69c12.95-10.18,25.89-20.39,38.69-30.76,7.57-6.13,15.11-12.32,22.52-18.63,5.64-4.81,11.42-9.77,16.67-15,2-2,4.53-3.51,6.58-5.51a73.64,73.64,0,0,1,6.19-5.65,120,120,0,0,0,12.51-11c2-2.09,4.52-3.55,6.62-5.55,5.69-5.39,13.53-13.63,21.8-14.38l1.8-.16-.54,1.69c-1.32,4.11-9.52,12.42-12.59,16.28A365,365,0,0,1,335,421.45c-4.62,4.66-9.89,8.74-14.83,13.06s-10.44,8.42-15.62,12.66c-15.2,12.45-30.18,25.25-44.32,38.84-19,18.22-38.68,35.63-57.71,53.76-2.45,2.33-4.78,5-7.43,7-3.44,2.72-4.18,3.22-2.81,7.55,3.17,10.07,5.76,20.58,8.62,30.77,1.34,4.77,6,22.22,9.33,29.49.14-1.65.08-3.37.35-4.92l3.92-35.94c.31-2.85,1-5.64,1.22-8.49.33-4,.92-14.23,2.33-17.53l.65-1.52,1.26,1.09c3.69,3.19,6.2,23.2,5.74,28.18-.57,6.11-.89,12.28-1.37,18.41s-.91,13.17-2.28,19l-3.68,20.23c-.65,4.54-1.29,9.07-1.88,13.62-.26,1.95-1.28,8.72-1.43,12.09.25-.49.41-1.13.62-1.55,3.37-7,4.73-16.84,6.33-24.49a293.07,293.07,0,0,1,8.21-29.26c1-3.15,1.95-6.34,3.06-9.47,1-2.72,2.9-6.09,3.53-8.74l.65-2.74,1.55,2.38c2,3,.42,4.65,0,7.69a191.89,191.89,0,0,1-3.66,20.45c-2.23,8.54-3.44,17.31-5.69,25.85s-4.15,17.11-6.43,25.61-4.61,16.71-6.29,25.19S212.07,707,211,715.66c-1.1,9.09-3.78,17.9-4.45,27.05-.7,9.46-1,19.57.57,28.95,1.07,6.36,4,22.67.14,28l-.29.4-.5.08c-6.71,1.07-11.6-19.24-12.35-24-2.75-17.41-.41-31.55-.19-48.7.11-8.25,1.26-17,2.16-25.24.77-7,1.61-14.19,2-21.27,1.12-21.44-.59-42.52-2.9-63.82-1-9.59-2.74-19.55-4.2-29.11-1-6.48-2-13-3.08-19.42-.34-2-1-7.5-1.78-9.54-1.19-.35-6.73,1.29-7.69,1.56a165.55,165.55,0,0,1-17.88,4.3c-18.58,3.15-36.17.92-52.73-8.26C87.39,545.25,69,522.1,67.67,498.6c-1.51-25.76,10-51,24.33-72,6.11-8.92,14.47-19,22.88-25.88,6.69-5.49,13.88-11.54,22-14.8,2.12-.85,5.22-1.78,7.17-3.22-1.82-2.6-7.26-6.51-9.27-9-2.83-3.54-5.75-7-8.68-10.47-11.93-14-21.81-29.57-32.48-44.5-5.38-7.52-10.17-15.41-15.43-23-15.95-23-29.87-47.32-43.71-71.57-4-7.07-11.36-18.38-12.91-26.1l-.41-2,2,.65c3.88,1.29,7.39,3.71,11.06,5.48a141.45,141.45,0,0,0,36.71,11.5c38.57,6.38,78,1.68,115.58-7.87,16.69-4.23,33.34-9.32,49.53-15.11,32.1-11.47,58.08-24,86.65-42.35,21.78-14,41.52-36.27,52.11-59.63,1.18-2.59,2.83-10.26,5.11-11.56l.9-.51.65.8c2.1,2.59,5.29,11.85,6.56,15.21,1.66,4.41,3.34,9.4,5.39,13.63,1.49,3.08,2.5,6.33,4,9.4,5.86,12.29,10.82,25,16.7,37.24,5.71,11.94,11.19,24,16.84,36,3.79,8,7.6,16,11.55,24,.87,1.75,4.63,9.6,6.14,11.58,1.83-.53,8.79-4,10-4.59a98.21,98.21,0,0,1,20.2-7.14,45.07,45.07,0,0,1,14.55-.94c6.05.7,18.69,3.89,19.81,10.89,2.17,13.56-4.14,21.9-14.85,29.54a55.55,55.55,0,0,1-9.32,5.37c-2.19,1-7.7,3-9.49,4.39s-4.95,5.74-6.51,7.55c-5.53,6.41-9.89,8.21-17,12.31-2.12,1.23-4.39,2.21-6.53,3.46-3.47,2-7.87,4.88-3.45,8.41,3.88,1.4,18.16-11.6,21.46-13.79,9.89-6.59,15.21-11.57,27.84-7.36,3.66,1.21,10.49,4,12.18,7.54,1.86,3.93-2.22,11.22-5.1,14-4,3.87-5.17,5.63-10.42,8.4-3,1.57-6.47,4.43-7.66,7.71,6.11,3.16,32.35-.36,38.18-2.11,52.28-15.66,84.44-65.48,126.87-96.21,17.8-12.91,37.61-22.15,56.88-32.64,9.74-5.3,19.69-10.21,29.47-15.45,27.9-14.93,55.69-34.07,81.19-52.67,15.29-11.16,13.34-13.41,27.71,1,11.24,11.23,7.47,19.61-1.18,30.77-7.79,10.05-14.8,13.49-25.08,20.28-3.39,2.24-19.2,12-23.89,16.1,3.52-.46,8-3.23,10.43-4.74a43,43,0,0,1,13.5-5.83c9.4-2.52,24.09-1.73,31.78,4.68,11.44,9.54-.42,16.69-8.62,21.82-7.62,4.78-15.39,9.35-22.89,14.31-16,10.58-18.11,14.67-37.86,18.83-2.31.48-13.47,1.36-14.64,2.66-2.62,3.58-.82,10.47-4.46,14.45-3.34,3.64-5.94,4.63-9,9.1q-7.54,11-15.26,21.85c-21.36,30-48.23,49.7-77.39,71.73-40.42,30.53-93.8,67.4-142.93,81.64-9.05,2.62-18.92,3.68-25.9,10.57-5.72,5.65-9.7,16.79-11.75,24.41-6.08,22.67-4.34,41.15,1.35,63.63,9.27,36.62,25.36,71.08,43.15,104.4,8.62,16.13,18.12,31.79,25.67,48.47,4.94,10.9,11.16,16.2-1.12,25.31-3.84,2.85-7.75,3.84-7.9,9.25s1.31,11.12,1.6,16.5c.63,11.94,7.53,58.78-2.58,65.91l-.91.65-.72-.85c-1.91-2.26-3.38-11.67-4.3-19.61ZM255.17.39c20.57-1,47.61-.32,67.25,5.8,15.7,4.9,34,16.26,43.95,29.28A42.41,42.41,0,0,1,375,56.57c3.21,27.81-20.05,58.64-40.48,75.85-54.16,45.62-144,74.24-214.83,76.67-34.49,1.18-91.32-2.31-111.94-33.9-22.55-34.54,9.12-74.08,34.84-96.73C69.64,54.6,102.92,39.54,136.69,27,175.5,12.63,213.52,2.47,255.17.39ZM328.29,713c-.58.84-1.13,1.65-1.63,2.39-1.94,2.83-3.81,5.7-5.69,8.57-5.39,8.28-32.82,45.45-39.94,48.3l-1.37.56-.27-1.43c-1-5.25,5-11.89,7.38-16.32,2.74-5,6-9.81,9.09-14.67,6.11-9.7,12-19.52,17.9-29.37,26.48-44.41,55.28-87.89,77.87-134.38,3.65-7.5,7.14-15,10.91-22.48,1.63-3.22,11.16-23.2,15.32-22.78l.79.08.24.75c1.57,5-7.08,32.19-9.3,38.16a283.91,283.91,0,0,1-14.74,33.13c-3.84,7.26-25.49,44.49-31,57.3,1.77-2.71,3.78-6.43,4.46-7.51l22.36-35.68c5-8,9.67-16.15,14.85-24,2.45-3.71,4.77-7.55,7.15-11.31,1.57-2.46,6.13-10.13,8.12-11.87l1.18-1,.7,1.4c2.08,4.11-7.9,21-10.22,25.25-9.79,17.85-19.59,35.69-29.71,53.37-6.34,11.07-12.79,22.1-19.52,33-5.3,8.53-10.88,17.31-17,25.29-5,6.54-10.26,13-15.48,19.44-2.69,3.3-14.16,17.74-17.33,19.48l-2,1.1.2-2.23c.33-3.82,12-23.74,16.65-32.43ZM177.63,504.06c-.15-3.44,15.12-12.15,18.29-14.4,18.45-13.12,37.84-25,56.62-37.63,12.57-8.47,25-17.16,37.5-25.7,5.77-3.95,11.73-9.11,17.23-13.5,2.89-2.3,16.1-13.16,19-14l2.09-.58-.6,2c-2.67,9-24.48,26.41-32.59,32.09C282.93,441,271.79,451.18,259,459s-25.53,15.89-38.42,23.67c-8.46,5.12-17,10.21-25.65,15-3.46,1.91-12.09,6.84-15.88,7.47l-1.35.22-.06-1.33ZM565.51,375.72c0-2.9,9.94-9.18,12.4-11.11L590.82,355c13.12-8.91,25.48-19.08,38.29-28.43,2.16-1.58,4.06-3.5,6.25-5s4.3-2.84,6.39-4.33c5.13-3.68,21.84-17.66,26.34-18.88l2.08-.56-.6,2c-1,3.26-19.33,19.3-23.15,22.75s-7.82,7.15-11.88,10.55-7.67,7.2-11.85,10.22-8.37,6.57-12.65,9.73c-5.86,4.34-37.6,24.63-43.5,23.79l-1-.15v-1ZM832.88,115.78c-1.91,1.42-5.34,5-6.51,5.88a253.59,253.59,0,0,1-28.54,18.79q-10,5.49-19.88,11.07c-13.35,7.52-27.28,14.12-40.48,21.88-1,.56-10.11,5.41-10.24,6.28-.12.72,4.54,6,5.1,6.68,4.18,5.22,8.26,12.45,11.77,18.19,2.62,4.28,5.22,8.59,7.89,12.85a66.36,66.36,0,0,0,4.16,6.25c4.88.5,19.39-4.56,24.66-5.6,21.84-4.34,22.84-13.29,39.8-22.57,5.18-2.84,6.59-2.8,12.16-4a19.52,19.52,0,0,0,6-2.52c2.62-1.62,10.12-7.7,5.77-11-7.19-5.47-30.16-.38-37.85,3.14-8,3.67-13.19,8-22.37,9.45-8.38,1.35-21.9.46-30.41-.66l-1.45-.19.47-1.36c.72-2.08,7.79-8.68,9.78-10.58,5-4.75,14.27-16.56,19.59-19.36a22.94,22.94,0,0,1,3.43-1.46c2.94-1,5.87-1.67,8.81-2.79a76.42,76.42,0,0,0,14.58-7.85c6.94-4.59,15.3-11.56,19.34-18.81.88-1.58,4.18-8.64,4.43-11.71Zm-33.72,52.6c2.82-1.84,5.52-3.66,6.76-4.45,4.86-3.09,10-7.13,14.64-10.58,3-2.24,6.06-4.5,9.05-6.81a51.44,51.44,0,0,0,5-4.11c2.27-2.37,8.05-9.4,8.38-13.62-.38.48-.72,1.08-.95,1.42-2.59,4-5.5,8.76-8.88,12.15-3.68,3.69-9.17,7.29-13.38,10.48-2.77,2.1-13.37,9.74-20.65,15.52Zm-358,109.17c-5.45-1.8-10,5.14-14.79,6.39l-1,.28-.4-1c-1.18-3,.35-9.36,1.31-12.43,1.54-5,.57-7.48.39-12.22a11.15,11.15,0,0,1-2,.68c-4.78,1.13-7.22,2.6-11.38,5.38a365.63,365.63,0,0,0-36.59,27.3c-3.83,3.32-7.32,7-11.18,10.3-5.84,5-4.44,6.9-1.7,13.33,3.6,8.44,10.1,18.59,16.64,25.13,9.94,9.92,17.07,10.8,30.42,6.83a62.73,62.73,0,0,0,28-16.8c5.88-5.92,11.14-13.28,17.82-18.27.72-.54,1.47-1.05,2.24-1.54,9.37-5.92,19.74-8.72,29.77-13.18,9.37-4.16,16.89-18.62,1.94-20.05a21.36,21.36,0,0,0-8.63.89c-5.35,1.69-10.17,5.38-14.5,8.79-5.69,4.49-11.08,8.89-17.39,12.59-3,1.77-12.79,6.31-16.07,4.78l-.46-.22-.16-.47c-1.43-4.13,2.67-17.89,4.66-22,.62-1.27,2.6-3.2,3.1-4.54ZM398,336.25c.54-2.94,6.28-7.95,9-9.13,4.22-1.81,5.15-4.54,6.81-8.47s3.14-7.8,4.79-11.67c1.22-2.88,2.75-10.39,6-11.4l.75-.24.52.58c2.12,2.36,1.12,5.54.88,8.32-.73,8.13-1.11,13.4-5.34,20.77-2.26,3.94-5.12,6.36-8.85,8.89-2.43,1.66-11.23,5-13.95,3.6l-.79-.4.16-.85Zm31-79.34c6.15.21,4.2,5.63,12.58-.16,4.18-2.88,8.5-5.66,12.77-8.41s8.88-5.82,13.36-8.19c4.74-2.52,9.83-4.39,14.51-7,17.14-9.61,4.68-16.4-6.25-10.95-2.86,1.43-5.9,3.41-8.63,5.1q-7.15,4.43-14.18,9.07c-4.52,3-9,6-13.41,9.24-2.18,1.59-6,4.33-7.71,6.39-1.3,1.6-1.74,3.46-3,4.92Zm15.18,13.21c2.45-.9,7.44-3.53,9-4.3,6.4-3.19,12.75-6.5,19.06-9.87,5.64-3,11.26-6.06,16.81-9.23a95.34,95.34,0,0,0,10.29-6.35c3.47-2.67,8.82-13.15,5.91-17.54-3.2,2.61-8.6,11.86-11.65,14.79-4.48,4.32-12.73,8.4-18.37,11.2-6,3-12.5,5.8-18.32,9.1-2.16,1.23-12.78,8.58-12.71,12.2Zm-136.34-49c-6.64,1.9-12,8.35-15.24,14.09-1,1.73-2.21,3.79-4.2,4.49s-4.7-.11-6.69-.68c-4.13-1.17-8.08-2.25-12.32-3.07-8-1.53-15.57-.75-20.72,6.06-5.51,7.28-6.72,12.85-2.49,21.14a41.22,41.22,0,0,0,6.11,8.58c5.11,5.57,3.66,5.22.58,10.94a41,41,0,0,0-5.15,23.85c1.4,17,13.1,29.56,31.32,24.85,15.33-3.95,17.51-11.34,23.26-23.93a38.38,38.38,0,0,1,4.62-7.93c9.81-12.51,42.22,5.39,48-10.53,2.81-7.72.16-15.17-4.46-21.61-4-5.52-11.38-9.27-17.45-12.19-15.36-7.38-10.31-3.45-12.65-19.24-1-6.51-3.3-17.47-12.54-14.82ZM172.8,262.24c-6.64.81-12.22,3.26-16.73,8.16-3.24,3.51-4.84,7.25-7.59,10.86-5,6.57-22.46-12.61-32.23-3.46-5.93,5.55-4.67,13.55-.21,19.54,4.07,5.49,10.29,11.28,12,18,2.11,8.07-2.18,17.91-.39,27.14,1.53,7.85,5.78,16.67,15,17.4,6.1.49,12-2.94,15.6-7.56,5.93-7.55,3.18-17.26,15.15-7.5,6.2,5.05,10.43,8.86,18.73,10.09,6.84,1,16.34-.93,20.4-6.9s8.78-13.3,7.68-20.61a14.16,14.16,0,0,0-.81-3.05c-1.92-4.94-6.45-8.89-10.75-11.89-3.72-2.59-7.68-4.75-11.63-7-2.23-1.25-6.36-3.47-7.82-5.51-1.57-2.2.1-10.23.25-13.11.55-10.29-2.87-26.28-16.66-24.6ZM239,361.55a77.32,77.32,0,0,1-7.82,3.36,74.57,74.57,0,0,1-32.63,3.95l-26.45-2.23c-9.91.1-9.61,8.5-4.8,14.6a12.82,12.82,0,0,0,2.74,2.56c10.09,7,29.83-.47,39.69-4.9a156.82,156.82,0,0,0,22.7-12.57c1.25-.83,4.08-2.78,6.57-4.77Z"/></g></g></svg>