<svg xmlns="http://www.w3.org/2000/svg" viewBox="0 0 1369.61 1026.32"><defs><style>.cls-1{fill:red;fill-rule:evenodd;}</style></defs><g id="Layer_2" data-name="Layer 2"><g id="Layer_1-2" data-name="Layer 1"><path class="cls-1" d="M751.81,913.14l1,10.62-1.7-12.19.75,1.57Zm-323.15,12s1.31,2,2.72,4.63l-2.72-4.63ZM566,895c3.67,15.26,11.78,31.44,8.75,49,3.34,18.72,3.79,34.53,9.14,51.19-.43,2.91-1.81,3.16-4.3,2.45l-10.75-46.93a38.61,38.61,0,0,1,2.69-6.15L566,895Zm335.64-82.82,4.91,27.52-4.91-27.52Zm-271.1,27.32c6.23,29.57,18.37,52.42,17.37,86.65l-17.37-86.65Zm-138.13,9.85c19.38,18.2,10.49,56.07,22.66,81.76-.62,1.81-3.41-.54-4.53-1.48l-19.51-80,1.38-.24Zm571.2-181.71L1073,683l8.2,24.68c.49,2.75-.93,8.1-5,6.54l-12.59-46.62ZM1050,628.55l8,28.7c-2.13-9.28-9-18.31-9.35-28.45l1.38-.25Zm-337.23,55.3,5.36,51.28c.39,2.2-1.39,8.18-4.18,5.83l-3-59.08,1.78,2Zm-46-10.72c.39,2.2-1.22,6.45-.53,10.3l8.83,81.33c0,5.11-3.28-5.11-4,1.27-6.3-19.34-1-45.24-9.79-68.11-.45-7.86,5.2-13.39,3.95-17.71l1.38-8.19.2,1.11Zm282.92-75.35a12.28,12.28,0,0,1,3.77-.09l18.24,49-22.93-48.79.92-.16Zm-483,78.38,1,.39-7,51.16c-.85-18-10.56-37.89,4.13-51.23l1.84-.32Zm658.42-128.79c17.85,23,21.94,59.18,33.88,88.88-1.44,2.53-3.31,0-6-1.79l-30.83-87.71,3,.62ZM573.68,640.52l2,.78-6.81,25.59a10.74,10.74,0,0,0,1.81,4.79l-7.51,29.68c-3.93-22,0-45.39,10.48-60.84Zm-172,27.1,1.57.86-9.08,36.77,1.75,41.69c-.72,1.26-2.1,1.5-4.6.8-3.28-13-.54-24.31-2.47-40.43,5.45-14.57,3.82-29,12.83-39.69Zm751.42-160.3,2,.78c.92-.16,1.57.86,3.71,2.2,11.78,23.48,22.18,47.21,24.63,76.87l-32.68-79.45,2.31-.4Zm199.66-140.81c31.07,38.77-.69,12,10.68,33.26,3.43,19.23-7.13,21.07-19.49,34-11,7.57-3.62,30.09-15.79,28.24L1299,500.48c-5.32-40.43-27.4-15.62-22.32-13.68-4.49,1.35,3.87,8.4,3.93,14.05l5.17,18.36L1259.5,560c-20.6,17.19-7.32,4.11-15.16,18.51L1230.4,590.6l-12.83-45.35a7.75,7.75,0,0,0-3.67.64c7.35,41.21-12.63,6.16,8.69,54l-7.42,35.28c-20.24,16.56-25.82,19.79-28.49,44.62-16.85,14.26-22.34,41.84-39.83,57.91-7.28,6.94-15.77,12.38-14.43,25.18.16,6.2-3.47-6.2-3.68.64-11.86-8.14-2.34-29.06-13.68-39.54-2.26-12.64-6.32-22.13-14.74-26.9-5.66,29.31,24.49,60.32,11.1,88.71.14-4.56-33.5,64.18-41.83,67.9-7.45,8.66-4.4,17.76-9,23.66-17.47-15.65-10-50.39-23.44-73-2.1-6.44-1.22,6.44-3.67.64l7.66,93.27-22.15,35c-29.71,8.57-4.85,2-16.32-11.89l-17-61c-4.25,31.89,13,51.55-4.83,79-33.16,29-6.67,36.85-43.85,27.46L924.53,871c-1-5.49-6.49-4.53-10.68-9.47l-5.47-12.07-3.22.55,18.15,93.71-.6,36.37c-23.35,9.73-40.21,24-63.39,16.13-2.05-11.54,2.51-23.1-5.26-34.78-5.29-29.66-9.91-55.49-10.42-84.85-8.15-13.88-6.08-34.07-14.44-41.11-4.59.8-4.07,6.37-4.66,11,21.31,145.85,30.12,102.4,18.92,145.7-19.06,15.21-42.93,11.44-64.5,15.19l-4.59.8c-16.52-13-2.83-47.66-18.56-64.18-9.78,14.16,2,37.61-.19,57.25-24.38,41.07-29.59,19.88-57.78,15.72-1.41-2.59-4-3.84-5.6-7.52l-21.9-141.21-3.22.56c-1.56,49.55,19,106.59,5.47,152.56-20,7.45-10.69,6.4-35.44-2.32-10.88-10.57-8.84-33.59-14.73-50.69-.16-14.14.7-27.88-7.59-37.2-1.38.24-3.21.56-3.28,2.83.29,17.52-4.51,33.08,1.42,53,1.27,7.14,4.9,27.47,3.59,33.36-.46.08-33.57.18-31-6.5-22.82-.56-12,4.35-34-20.71l-21.71,8.31c-37.86-13.24,12,8.68-60.28-27.46-8.23-11.6-5.44-9.25-14.49-12.21l-17.33-28.14c-12,7.18-22.82,7.37-27.48,2.52L388,917.36c-1.77-2-4,1.27-6.92-1.62l-28.66-70.36c-1.21-1.49-2.12-1.33-4.88-.85l13,43.63c.68,3.84.19,9-3.19,11.31-8.32-4.21-22.52-6.84-28.09-19.47l-14.17-50.21c-1.74-7.07,3.48-9.67,3.94-17.69l-8.71-22.27q-2.5-2.12-4.13.72c.08,40.2,13.24,66.24-18.32,56.44l-27.14-24.74-18.81-20.52c25.34,4.09-53-47.43-52.4-47-24-4.33-2.7-52.21-14.51-46.76-6.1,5.59-10.27,19.35-18.2,17.33-8.85-1.86-10.78-18-16-26.1-16-2.31-40.06-12.29-54-24-.66-1-17.79-20.13-22-22.78-5.88,1.58-27.94-5.34-31.27-24,6.26-7.32,13-25.48,24.63-26.38L72,613.22l27-.16c8.81,14.89-2.44,12.89,5.36,27.39,8.16-2,5.52-16.82,15.32-20.23l18.69,1.28c7.11,2.73,10,10.73,14.81,16.68L148.43,673l15.72-33.9c9.25-11.8,8.17-17.85,16-8.45l41.18,13.23-4.69,58.6c.49,2.74,1.38,7.69,5.34,8.7l16.45-51,10.18-19.89c28.48,5.8,10.59-7,34-5.92,22.36.64,18.45,5.29,28.2-11.71-4.37,4.73,53.07-34.16,60.43-16.75,3-4.48-31.85,31-22.64,48.13,4.59-.8,6.56-5.67,11.44-4.82,10.08-20.45,22.38-39,45.83-40.27,9.58-15.26,22.79-10.19,38.92-15.27-2.91-5.72-6.22,44.7-6.55,48.16l23.1-40.28c36.44-23.9,14.66-5.38,44.93-13.48-.07,10.21-4.07,14.3,4,16.87,4.49-1.35,23.61-18.84,26.07-5.1-2.6,6.68-10.5,15.42-5.33,25.85-8.26,9.37,20.41-42.08,36-36.86,1.83,7.61-4.77,18.39,6.62,7.91l15.15-2.63,7.95,28.63c-10.27,27.29-10.68,64.75-7,95.83,1.54,6,.66-6.91,3.22-.56L609,625.67c14,1.53,10.88,2.64,12.86-10.17,10.57-25.63,39.58-14.25,45.9,0,3.45-20.43-18.23,64.92,3.59,33.36,15-35.46-4.64-36.58,28.87-42.42,12.89-7.33-5.6-7.51,16.14-13C739.47,608.64,738,642.88,752.49,671c-1.37-7.69-1.56,49.56,13.59,54.85,5.11-3.15,7.44-16.59,5.88-25.38-3.05-17-15.17-31.92-10.93-47.95,4.16,10-19.89-34.49-18.86-50,10.59-14.87,33.34-12,48.65-8.47,4.78,16.17,12,27.37,21.56,43.84,1.2,17.35,8.54,31.93,21.13,38.81l-23.34-80.35c-20.06-24.83-9.83-15.28,4.8-23.5,5.21-10.53,16.76-14.81,27.51-15.54,3.15,1.71,18,16.12,22.29,18.78,9.4,10.25,12.77,31.76,23.75,42.88,51.14,82.3,23.19,42.42,35.74,54.39,1.19-17.2-9-37-17.32-51.93-16.12-10.79-18.77-41.49-35.71-51.57a23,23,0,0,1-.26-6.75L900.82,542,918,564c4.62,2,5.38-4.34,4.39-9.83.17-9.66-4.51-17.34-2.77-26.14l15.09-8.29c-.59-3.3,21.36,34.8,24.38,17.28-13.89-24.77-9.44-13.09-1.69-28l4.59-.8c34.76,48.9,11,21.88,26.67,32.75l14.87,30.27s2.49.69,3.68-.65l-5.73-26.75c-12.15-17.72-17.72-30.34-33.06-44.67,2.17-3.78,3.94-9.75,4.5-17.21.53-2.36,21.22-3.13,23.15-2.9l25.32-14.6,40.44,30.35c6.86-4-4.51-17.34-6.19-18.75l-5.27-18.91c-.82.71,46.63-9.25,44.5-10.58,11.18,4.29,20.35,18.55,30.49,11.69a4.86,4.86,0,0,0,6-1l-3.44-19.23,27.55-4.79c11.47-2,48.08,30.71,42,18.17l-9.89-20.94c22.16-.46,34.36,12.15,35.35-6.15l28,.23,23.33,29.93c2,5.88,1.22-6.44,3.68-.64,6-19.18-14.91-25.16-10.93-40,87.71-28.29,35.17,3.51,36.13-17.62l23.36-25.59c5.51-1,24.26-2,26.26-4ZM1246,252.22c-1.25,3.62-4.47,4.18-6.64,8l-9.15,31.1c-6.92-9.58.31-22.19,4.35-31.4l11.44-7.67ZM234.31,413c11.49,13.89,31.78,24,32.69,47.66-.72,1.26-1.64,1.42-3.21.56l-18.28-36-11.5-6c-1.41-2.59-2.36-5.26-1.37-7.7l1.67,1.41ZM600.93,307.17c13.68,36.78,31.9,67.09,24.69,106.37L600.93,307.17Zm452.19-94-.14,4.57c-5.59,11.19-5.76,28.81-12.53,41.34-3,17.55-1.4,32-3.54,46.59l-13.31,13.09c-2.88-10.84,10-13.09,9.31-24.88-6-30.75,13-52.21,17.28-78.5a5.49,5.49,0,0,1,2.93-2.21ZM901.3,235.55l1,.39-.82,67.11-2.4-66.56,2.21-.94ZM373.62,327.44c19.57,19.29,28.85,50,39.48,77.69-3.18-4.55-9.2-6.35-11.66-12.16-5.31-21.78-11.64-43.94-26.8-57.2l-3.15-9.66,2.13,1.33Zm322.14-78.77,2.13,1.33,20.47,133.21c-15.1-31.42-8.48-66.06-22.29-98.27,2.34-13.46-4.23-23.67-2.32-34.22.92-.16,1.38-.24,2-2.05Zm231.32-40.26c5.28,34.83,1.94,74.57-6.48,104.41,0,0-2.11,1.51-4.14.73,5.3-20.79,3.63-54,11.33-74.62,1.62-12.2-2.81-21.08-1.82-31.46l1.11.94Zm-528.37,63,8.15,3.12,31,70.08-23.1-47.05c-1.12-.95-3.88-.46-6.47-1.71L397.17,273.4c-.2-1.11-.79-4.41,1.54-2ZM544.86,32.74C577.92,40,583.58,85,599,115.81c0,0,2.4.16,3.22-.56L591.6,60.92c.23-4,2.73-3.31,5.68-2.69l15.17,13.25,9,18.85c3.12-1.11,27-37.06,23.82,29.91l12.73-48.19,8.28-1.44c.63-17.7,3.36-36.91,15.22-47.48a13.18,13.18,0,0,1,4.7-.26l16.24,85.71c1.22,1.49,1.68,1.41,3.51,1.09,4.55-30.3-14.67-68.95-2.84-98.25L740.63.92c10,16.41-4,33.6-1.7,54.21a4.24,4.24,0,0,0,3,3.45c17.51-8.15,3.64-46,22.29-58.36L785,0l3.3,31.77,6.44-1.12L804.92,7.89A175,175,0,0,0,851.3,20.81C864,23.13,876.85,23.17,869,37.59l-14.64,66.68c5.45,1.32,14.22-5.31,14.72-10.51,1-7.55,3.25-13.61,1.25-19.51l19.42-34.6c16.06,2.32,45.48-2.81,66.12,22.54l-9.37,35.12c1.27,7.16,25.62-31.7,29.3-32.35l32.29,21.62c-1.67,6.54-16.75,33.57-11.41,42.29l17.91-29.8c3-4.49,11.5-9.94,17.44-5.87,13.55,9.56-3.94,1.82,25.87,14.79,7.58-5.29,24.06,10,33.35,9,2.79,2.35,23.07,20.39,22.71,29,2.65,6.92,3.67,15.26,9.35,12.56-8-36.63,25.85-11.87,32.6-.57,1.87,10.46-7.52,11-9,21.43,1.51,3.14,5.19,2.5,8.8,4.14,6-6.15,13.86-20.57,24.4-17.3,3.08,4,8.27,6.51,11.85,13.26.29,1.65.68,3.86,1,5.51-6.54,16.46-11.21,27.49,5.15,15.56l3.75-10.87,10.3-.66c2.14,1.33,12,8.7,14.15,12.86-.79,11.49-1.65,17.31,10.73,20.27,10.34-5.78,21.21,2,32.17,2.34.4,2.2,1.61,3.69,2.37,5.26,2.32,2.43,5.55,1.88,9.15,3.52,21.8,21.17,24,7.16,47.27,25.82,36,5.08.49,18.64,32.3,29.56,9.32,9.73,10.82,20.82,8.09,32.08-9.36,3.33-31.59,8.9-38.74,3.34-19,7.84-25.79,25.49-25.91-1.73-2.65-14.86-38.12,1.53-32.6.57-.59-3.31-.06-13.62-5.05-15-9.72,4-10.82,29.69-30.64,19.52-23.18-5.05-20.5,4.7-49.23,13.68l.47-23.92L1196.3,270l-11.23,16.72L1164,346.61c-18.65,4.38-20.16,9.19-48.79,2.82l-8-15.63c-15.6,13.5-13.07,9.08-27,16.05-28,4.88,7-69.88,4.06-56.9,1.65-1.41,17-16,3.59-17.08-22,14.62-17.36,54.1-40.35,74-9.79,6.24-55.23,3.94-71.62-2.85-11.58-14.45-.7-30.53-2.44-45.55,4.38-12.68,9.86-24.42,11.19-38.27l4.53-14.41c-.49-2.75-.68-3.85-2.82-5.19a3,3,0,0,0-4.14.72l-4.53,14.42c-17.94,19-14.31,55.27-25,80.4l-12.26,8.37-46.23,17.13c-19.7-14.73-13.35-48.18-16.65-72-2.38-24-2.57-48.93-6.5-70.95-.69-3.85-2.63-4.08-4.73-2.58l-1.45,151.22c-15.6,13.5-2.53,4.41-14.94,6.57l-38.36,21.44c-4.17-2.11-6.14-5.18-8.7-11.54C808.2,345,793,307.36,785.78,267.18c-1.18-6.61-5.35-.77-5.06.88,10.52,50.95,7.81,96.82,17.87,147.85-15.25,12.87-14.13,5.87-30.41,7.56l-12.85-53.38c-.85-2.12-2.36-5.26-5.48-4.15.34,55-3.16,14.17,4.81,34.92.58,11.25-2,23.06-4.51,33.13-3.75,10.87-12.15,8.93-7.6,21.19.3,1.65-1.18,1.34-1.61,4.26L709,463.85c-16.5-34-5.82-75-17.39-113.31-.59-3.31-10.33-18.07-11.31-23.57-1.22-1.49-2.27-4.71-5.39-3.61-6.28,23.23,14.23,53.15,12,80.77,4.61,25.87,2.37,47.83,7.78,70.15C691,493.1,653.53,469,648.44,467c-8.89-4.7-6.22-21.62-14.27-24.19a3.66,3.66,0,0,0-4.59.8c-19.06,18.07,31.68,7.53-22.57,17-36.14-27.19-7.18-8.4-26.26-17-24.41-33.21-14.69-95.63-44.2-130.79l17.52,100.81c1.18,6.61-8.81,11.75-11.27,13.88-6.4-4-15.88-4-21-13.94L496,348.29s-2.5-.7-3.22.56c2.91,21.63,17,39.6,14.81,64.39-2.47,10.08-12.19,14-19.94,13.12-10.5-8.39-5.65-2.43-31-.86l-12.44-16.56-18.55,12.88c18.29-11.7-27.37,24.63-34.19,15.6l-13.33,2.32L314.36,321.45a7.74,7.74,0,0,0-3.67.64l49.62,105.43-.21,30.69c-4.66,3.08-24.11,26.9-30.28,11-15-7-22.67-26.14-26.67-45.87-15-22.93-32-49.47-59.66-55.45a5.85,5.85,0,0,0-4.6.8c-4.4,1.91,5.09,2,.42,5l39.72,26c15.46,22.85,25.88,57.36,19.66,86.25-5,9.37-14.82,17.9-21.74,16.27L243,468.94c5.29-4.89,10.06,59,8.46,39.39l-19.28,6.2c-8-26.41-23.39-32.82-37.27-54.81,1.77,9.91-16.59,8-11.24,16.72l17.71,51.4c-6.15,10.72-59.67,10.95-71.29,9.57l-21-35.5c-1-.39-4.83-3.13-7.19-.45,2,8.73,18.42,58.09-17.32,33.1-1.31-2-12.86-29.55-14-11.76.3,1.65,2.82,5.18,3.32,7.93-2.93,10.16-14.13,13.81-24.7,15.66-8.19,17.88-10.16,14.82-23.68,8.09,0,0-6.44,17-8.45,19.06-4.43-.93-5.51-7-8.76-9.25-1.21-1.49-4-1-6.56-2.27-4.8-.29,4-4.1-1.81-4.79l8.49-32.12c20.37-39.87,1-39.34,36-45.42l22,6.38c-6.75-27.2,5.43-41.24,23.17-53.41,3.45-12.52,2.91-36.83,15.26-44.65,22.26,5.2,20.82-24.06,47.25-24.69l17.56,13.4L187,402.08a5.44,5.44,0,0,0,4.14-.72c-2.85-23.91-27.44-31.55-26.83-60,.26-1.18,27.4-37.69,29.66-40.92,19,.1,2.68-24.87,28.15-12.28l11.9-39.53c1,.39,19.69,22.68,19.41,5.14-4.34-8.33-9.62-11.38-5.64-18.32,10.41-16,40.86,21.83,35.65,16.49,11.48,13.9,22,41,29,21.63l-33.16-66.3c9-15.76,23-12,26-26.67,9.73-19.85,26.42-35.25,45.8-48.83,18.12-2,25.1,29.11,36.53,37.34a3.82,3.82,0,0,0,3.67-.65c-1.51-3.14-34.75-43.32-17.9-52.5l35.77,43.72s2.49.7,3.22-.56L380.14,97.74l18.68-9.5,28.32-21.95A26.74,26.74,0,0,1,455,63.14c21.63,22.9,42.9,46.44,48.89,80,1.21,1.49,2.82,5.18,5.38,3.61,7.49-5.85-.22-19.83-3.73-28.87-13-22.15-25.52-42.09-36.87-60.55-1.87-2.51-2.37-5.26-1.38-7.7.46-.08,28.89,5.18,29,5.73,8.89,12.64,17.13,24.26,26.19,35.17-14.92-41.1-27.54-40-9.34-52.29,3.15,1.72,27.55.31,29.22-6.22l2.5.7Z"/></g></g></svg>