<svg xmlns="http://www.w3.org/2000/svg" viewBox="0 0 125.2 125.2"><defs><style>.cls-1{fill:#000002;}.cls-2{fill:#f47e60;}.cls-3{fill:#e15b64;}.cls-4{fill:#e0e0e0;}.cls-5{fill:#77a4bd;}.cls-6{fill:#c33737;}.cls-7{fill:#fff;}</style></defs><g id="Layer_2" data-name="Layer 2"><g id="圖層_1" data-name="圖層 1"><circle class="cls-1" cx="62.6" cy="62.6" r="62.6"/><path class="cls-2" d="M49.7,89.6,36.1,76a1.93,1.93,0,0,1,.8-3.2l7.2-2.2,11,11-2.2,7.2A1.92,1.92,0,0,1,49.7,89.6Z"/><path class="cls-3" d="M65.5,106.7h0c7.9-6.7,4.3-13.7-.2-19.9a6.76,6.76,0,0,1-.1-7.9l7.1-10.2a5.58,5.58,0,0,1,9.7,1C87.7,83.2,86.1,100.8,65.5,106.7Z"/><path class="cls-3" d="M19,60.3h0c6.7-7.9,13.7-4.3,19.9.2a6.76,6.76,0,0,0,7.9.1L57,53.5a5.58,5.58,0,0,0-1-9.7C42.6,38.1,25,39.6,19,60.3Z"/><path class="cls-4" d="M89.8,69.7C78.9,80.6,64.9,85.3,54.9,82.3L43.4,70.8c-3-10,1.7-23.9,12.6-34.9,19.2-19.1,44.4-19.4,48.4-15.4S108.5,51,89.8,69.7Z"/><circle class="cls-5" cx="82.9" cy="42.9" r="8.7"/><path class="cls-2" d="M104.4,20.5c-2-2-9.5-2.9-18.8-.9l20,20C107.4,30.2,106.4,22.5,104.4,20.5Z"/><polygon class="cls-6" points="38.6 101.1 46.2 86.1 42.9 82.8 42.8 82.7 39.5 79.4 24.6 87 31.2 88.3 24.6 101 24.2 101.3 24.4 101.2 24.3 101.4 24.7 101.1 37.4 94.5 38.6 101.1"/><polygon class="cls-7" points="24.2 28 23.4 27.4 22.4 27.8 22.7 26.8 22.1 26 23.2 26 23.7 25.1 24 26.1 25 26.4 24.2 27 24.2 28"/><polygon class="cls-7" points="35.6 28.6 36 29.6 37 29.7 36.3 30.4 36.5 31.4 35.6 31 34.7 31.4 34.8 30.4 34.1 29.7 35.1 29.6 35.6 28.6"/><polygon class="cls-7" points="21.2 22.7 21.7 23.6 22.7 23.7 21.9 24.5 22.1 25.5 21.2 25 20.3 25.5 20.5 24.5 19.7 23.7 20.8 23.6 21.2 22.7"/><polygon class="cls-7" points="98.9 90.4 98.8 91 99.3 91.4 98.7 91.5 98.5 92.1 98.2 91.6 97.6 91.5 98 91.1 97.8 90.5 98.4 90.7 98.9 90.4"/><polygon class="cls-7" points="93.2 101.4 93.4 101.3 93.4 101.1 93.6 101.3 93.8 101.3 93.7 101.4 93.8 101.6 93.6 101.6 93.4 101.7 93.4 101.5 93.2 101.4"/><polygon class="cls-7" points="64.9 111.4 67.8 110 68.2 106.8 70.4 109.1 73.5 108.6 72 111.4 73.5 114.1 70.4 113.6 68.2 115.9 67.8 112.7 64.9 111.4"/><polygon class="cls-7" points="64.9 110.4 65.2 111 65.8 111.1 65.4 111.5 65.5 112.1 64.9 111.8 64.4 112.1 64.5 111.5 64.1 111.1 64.7 111 64.9 110.4"/><polygon class="cls-7" points="14.9 108.6 14.7 109 14.8 109.4 14.4 109.2 14 109.5 14 109.1 13.7 108.8 14.1 108.7 14.2 108.2 14.5 108.6 14.9 108.6"/><polygon class="cls-7" points="110.5 15.7 110.1 15.6 109.9 15.9 109.8 15.5 109.5 15.4 109.8 15.2 109.8 14.8 110.1 15.1 110.5 15 110.3 15.3 110.5 15.7"/><polygon class="cls-7" points="110 105.9 110.1 105.3 109.7 104.9 110.3 104.9 110.5 104.4 110.7 104.9 111.3 105 110.9 105.4 110.9 105.9 110.5 105.6 110 105.9"/><polygon class="cls-7" points="59.4 86.5 60.1 85.7 59.8 84.6 60.9 85 61.8 84.3 61.7 85.5 62.6 86.2 61.5 86.4 61.2 87.5 60.5 86.6 59.4 86.5"/><polygon class="cls-7" points="35.6 62.6 35.4 62.2 34.9 62.1 35.2 61.7 35.1 61.3 35.6 61.5 36 61.3 35.9 61.7 36.3 62.1 35.8 62.2 35.6 62.6"/></g></g></svg>