<?xml version="1.0" encoding="utf-8"?>
<!-- Generator: Adobe Illustrator 25.4.1, SVG Export Plug-In . SVG Version: 6.00 Build 0)  -->
<svg version="1.1" id="Layer_1" xmlns="http://www.w3.org/2000/svg" xmlns:xlink="http://www.w3.org/1999/xlink" x="0px" y="0px"
	 viewBox="0 0 120 120" style="enable-background:new 0 0 120 120;" xml:space="preserve">
<style type="text/css">
	.st0{fill:#222222;}
	.st1{fill:#2B2B2B;}
	.st2{fill:#353535;}
	.st3{fill:#404040;}
</style>
<g transform="scale(0.47)">
	<g transform="translate(122.882 0)">
		<path class="st0" d="M177,85.5c-0.5-2.2-1.9-3.9-3.7-4.9c0.8-0.9,1.4-2.1,1.4-3.5c0-2.8-2.3-5-5-5c-1.7,0-3.1,0.8-4,2.1
			c-1.3-2.3-3.8-3.9-6.6-3.9c-1.8,0-3.3,0.6-4.6,1.6c-1.2-2.4-3.8-4.1-6.7-4.1c-2.9,0-5.4,1.7-6.7,4c-0.7-0.2-1.4-0.3-2.1-0.3
			c-4.5,0-8.2,3.6-8.2,8.2c0,3.1,1.8,5.8,4.3,7.2c-0.1,0.7-0.1,1.3,0.1,2c0.6,2.7,3.4,4.4,6.1,3.8c0.2-0.1,0.3-0.1,0.4-0.1
			c1.5,3.1,5,4.9,8.5,4.1c2.8-0.7,5-2.8,5.6-5.5c1.4,0.7,3.1,0.9,4.9,0.5c0.9-0.2,1.8-0.6,2.5-1.1c1.5,2.9,5,4.6,8.4,3.9
			C175.4,93.6,178,89.5,177,85.5z"/>
		
			<animateTransform  accumulate="none" additive="replace" attributeName="transform" calcMode="linear" dur="8.333333333333332s" fill="remove" keyTimes="0;1" repeatCount="indefinite" restart="always" type="translate" values="0;256">
			</animateTransform>
	</g>
	<g transform="translate(122.882 0)">
		<path class="st0" d="M-79,85.5c-0.5-2.2-1.9-3.9-3.7-4.9c0.8-0.9,1.4-2.1,1.4-3.5c0-2.8-2.3-5-5-5c-1.7,0-3.1,0.8-4,2.1
			c-1.3-2.3-3.8-3.9-6.6-3.9c-1.8,0-3.3,0.6-4.6,1.6c-1.2-2.4-3.8-4.1-6.7-4.1c-2.9,0-5.4,1.7-6.7,4c-0.7-0.2-1.4-0.3-2.1-0.3
			c-4.5,0-8.2,3.6-8.2,8.2c0,3.1,1.8,5.8,4.3,7.2c-0.1,0.7-0.1,1.3,0.1,2c0.6,2.7,3.4,4.4,6.1,3.8c0.2-0.1,0.3-0.1,0.4-0.1
			c1.5,3.1,5,4.9,8.5,4.1c2.8-0.7,5-2.8,5.6-5.5c1.4,0.7,3.1,0.9,4.9,0.5c0.9-0.2,1.8-0.6,2.5-1.1c1.5,2.9,5,4.6,8.4,3.9
			C-80.6,93.6-78,89.5-79,85.5z"/>
		
			<animateTransform  accumulate="none" additive="replace" attributeName="transform" calcMode="linear" dur="8.333333333333332s" fill="remove" keyTimes="0;1" repeatCount="indefinite" restart="always" type="translate" values="0;256">
			</animateTransform>
	</g>
	<g transform="translate(122.882 0)">
		<path class="st0" d="M240.8,97c0.2-0.6,0.3-1.1,0.3-1.8c0.3-4.4-3.1-8.1-7.5-8.4c-1.1-0.1-2.2,0.1-3.1,0.5
			c-0.8-4.6-4.6-8.3-9.5-8.5c-5.6-0.4-10.4,3.9-10.7,9.5c-0.1,0.6,0,1.2,0.1,1.7c-3.3,0.1-6,2.6-6.1,5.9c0,0.4,0,0.8,0.1,1.1
			c-0.2,0-0.3-0.1-0.4-0.1c-2.3-0.1-4.3,1.7-4.5,4.1s1.7,4.3,4,4.5c0.4,0,0.8,0,1.1-0.1c1.3,1.5,4.1,2.6,7.5,2.8
			c1.9,0.1,3.7-0.1,5.2-0.6c0.9,0.9,2.2,1.6,3.8,1.7c2.1,0.1,3.9-0.8,4.8-2.2c1.1,0.5,2.4,0.9,3.8,1c2.3,0.2,4.4-0.5,5.7-1.5
			c1,0.9,2.4,1.4,3.9,1.5c3.5,0.2,6.3-2.2,6.6-5.3C246,100.1,243.8,97.6,240.8,97z"/>
		
			<animateTransform  accumulate="none" additive="replace" attributeName="transform" calcMode="linear" dur="8.333333333333332s" fill="remove" keyTimes="0;1" repeatCount="indefinite" restart="always" type="translate" values="0;256">
			</animateTransform>
	</g>
	<g transform="translate(122.882 0)">
		<path class="st0" d="M-15.2,97c0.2-0.6,0.3-1.1,0.3-1.8c0.3-4.4-3.1-8.1-7.5-8.4c-1.1-0.1-2.2,0.1-3.1,0.5
			c-0.8-4.6-4.6-8.3-9.5-8.5c-5.6-0.4-10.4,3.9-10.7,9.5c-0.1,0.6,0,1.2,0.1,1.7c-3.3,0.1-6,2.6-6.1,5.9c0,0.4,0,0.8,0.1,1.1
			c-0.2,0-0.3-0.1-0.4-0.1c-2.3-0.1-4.3,1.7-4.5,4.1s1.7,4.3,4,4.5c0.4,0,0.8,0,1.1-0.1c1.3,1.5,4.1,2.6,7.5,2.8
			c1.9,0.1,3.7-0.1,5.2-0.6c0.9,0.9,2.2,1.6,3.8,1.7c2.1,0.1,3.9-0.8,4.8-2.2c1.1,0.5,2.4,0.9,3.8,1c2.3,0.2,4.4-0.5,5.7-1.5
			c1,0.9,2.4,1.4,3.9,1.5c3.5,0.2,6.3-2.2,6.6-5.3C-10,100.1-12.2,97.6-15.2,97z"/>
		
			<animateTransform  accumulate="none" additive="replace" attributeName="transform" calcMode="linear" dur="8.333333333333332s" fill="remove" keyTimes="0;1" repeatCount="indefinite" restart="always" type="translate" values="0;256">
			</animateTransform>
	</g>
	<g transform="translate(245.765 0)">
		<path class="st1" d="M256.3,175c-0.3-4.1-3.9-7.1-8.2-7.2c0-0.4,0-0.8,0-1.2c-0.5-5.2-5.4-9-11.1-8.5c-0.6,0.1-1.3,0.2-1.9,0.3
			c0-0.1,0-0.1,0-0.1c-0.7-7.5-7.4-13.1-14.9-12.4c-6.7,0.6-11.9,6.1-12.4,12.6c-8.2,0.8-14.2,7.5-13.5,14.9
			c0.7,7.6,7.8,13.1,16,12.3c2.3-0.2,4.4-0.9,6.3-1.9c3.4,2.5,8.5,3.9,14.1,3.4c4.7-0.4,9-2.2,11.9-4.7c1.6,1,3.6,1.5,5.6,1.3
			C253.1,183.3,256.6,179.4,256.3,175z"/>
		
			<animateTransform  accumulate="none" additive="replace" attributeName="transform" calcMode="linear" dur="4.166666666666666s" fill="remove" keyTimes="0;1" repeatCount="indefinite" restart="always" type="translate" values="0;256">
			</animateTransform>
	</g>
	<g transform="translate(245.765 0)">
		<path class="st1" d="M0.3,175c-0.3-4.1-3.9-7.1-8.2-7.2c0-0.4,0-0.8,0-1.2c-0.5-5.2-5.4-9-11.1-8.5c-0.6,0.1-1.3,0.2-1.9,0.3
			c0-0.1,0-0.1,0-0.1c-0.7-7.5-7.4-13.1-14.9-12.4c-6.7,0.6-11.9,6.1-12.4,12.6c-8.2,0.8-14.2,7.5-13.5,14.9
			c0.7,7.6,7.8,13.1,16,12.3c2.3-0.2,4.4-0.9,6.3-1.9c3.4,2.5,8.5,3.9,14.1,3.4c4.7-0.4,9-2.2,11.9-4.7c1.6,1,3.6,1.5,5.6,1.3
			C-2.9,183.3,0.6,179.4,0.3,175z"/>
		
			<animateTransform  accumulate="none" additive="replace" attributeName="transform" calcMode="linear" dur="4.166666666666666s" fill="remove" keyTimes="0;1" repeatCount="indefinite" restart="always" type="translate" values="0;256">
			</animateTransform>
	</g>
	<g transform="translate(245.765 0)">
		<path class="st1" d="M189,218.9c0-5.4-3.9-10-9-10.9c0.1-0.6,0.1-1,0.1-1.5c0-8.5-6.9-15.3-15.3-15.3c-6.5,0-12.2,4.1-14.3,9.9
			c-0.8-0.2-1.7-0.3-2.5-0.3c-5.2,0-9.5,4.1-9.8,9.2c-0.6-0.1-1.3-0.2-1.9-0.2c-5,0-8.9,4-8.9,8.9c0,3.3,1.8,6.2,4.5,7.7
			c0,0.1,0,0.1,0,0.1c0,3.2,2.6,5.8,5.8,5.8c1.9,0,3.5-0.9,4.6-2.2c0.1,0,0.1,0,0.2,0h7.2c1.7,1.4,3.7,2.2,6,2.2s4.4-0.8,6-2.2h0.1
			c2.3,2.6,5.6,4.3,9.4,4.3c3.9,0,7.4-1.8,9.6-4.5C185.3,228.6,189,224.2,189,218.9z"/>
		
			<animateTransform  accumulate="none" additive="replace" attributeName="transform" calcMode="linear" dur="4.166666666666666s" fill="remove" keyTimes="0;1" repeatCount="indefinite" restart="always" type="translate" values="0;256">
			</animateTransform>
	</g>
	<g transform="translate(245.765 0)">
		<path class="st1" d="M-67,218.9c0-5.4-3.9-10-9-10.9c0.1-0.6,0.1-1,0.1-1.5c0-8.5-6.9-15.3-15.3-15.3c-6.5,0-12.2,4.1-14.3,9.9
			c-0.8-0.2-1.7-0.3-2.5-0.3c-5.2,0-9.5,4.1-9.8,9.2c-0.6-0.1-1.3-0.2-1.9-0.2c-5,0-8.9,4-8.9,8.9c0,3.3,1.8,6.2,4.5,7.7
			c0,0.1,0,0.1,0,0.1c0,3.2,2.6,5.8,5.8,5.8c1.9,0,3.5-0.9,4.6-2.2c0.1,0,0.1,0,0.2,0h7.2c1.7,1.4,3.7,2.2,6,2.2
			c2.3,0,4.4-0.8,6-2.2h0.1c2.3,2.6,5.6,4.3,9.4,4.3c3.9,0,7.4-1.8,9.6-4.5C-70.7,228.6-67,224.2-67,218.9z"/>
		
			<animateTransform  accumulate="none" additive="replace" attributeName="transform" calcMode="linear" dur="4.166666666666666s" fill="remove" keyTimes="0;1" repeatCount="indefinite" restart="always" type="translate" values="0;256">
			</animateTransform>
	</g>
	<g transform="translate(112.647 0)">
		<path class="st2" d="M327.5,225.5c-0.9-3.6-3.2-6.5-6.2-8.2c1.4-1.5,2.3-3.5,2.3-5.8c0-4.6-3.8-8.3-8.3-8.3
			c-2.8,0-5.2,1.4-6.7,3.4c-2.1-3.9-6.3-6.5-11-6.5c-2.9,0-5.5,0.9-7.7,2.7c-2.1-4-6.3-6.8-11.2-6.8c-4.8,0-9,2.8-11.1,6.7
			c-1.1-0.3-2.3-0.5-3.5-0.5c-7.6,0-13.7,6-13.7,13.6c0,5.2,2.9,9.7,7.1,12c-0.2,1.1-0.2,2.2,0.1,3.4c1,4.6,5.6,7.4,10.1,6.4
			c0.3-0.1,0.5-0.1,0.7-0.2c2.5,5.2,8.3,8.2,14.1,6.9c4.7-1.1,8.3-4.7,9.4-9.1c2.4,1.1,5.2,1.5,8.1,0.9c1.5-0.3,2.9-0.9,4.1-1.8
			c2.6,4.9,8.3,7.7,13.9,6.4C324.8,239,329,232.2,327.5,225.5z"/>
		
			<animateTransform  accumulate="none" additive="replace" attributeName="transform" calcMode="linear" dur="2.7777777777777772s" fill="remove" keyTimes="0;1" repeatCount="indefinite" restart="always" type="translate" values="0;256">
			</animateTransform>
	</g>
	<g transform="translate(112.647 0)">
		<path class="st2" d="M71.5,225.5c-0.9-3.6-3.2-6.5-6.2-8.2c1.4-1.5,2.3-3.5,2.3-5.8c0-4.6-3.8-8.3-8.3-8.3c-2.8,0-5.2,1.4-6.7,3.4
			c-2.1-3.9-6.3-6.5-11-6.5c-2.9,0-5.5,0.9-7.7,2.7c-2.1-4-6.3-6.8-11.2-6.8c-4.8,0-9,2.8-11.1,6.7c-1.1-0.3-2.3-0.5-3.5-0.5
			c-7.6,0-13.7,6-13.7,13.6c0,5.2,2.9,9.7,7.1,12c-0.2,1.1-0.2,2.2,0.1,3.4c1,4.6,5.6,7.4,10.1,6.4c0.3-0.1,0.5-0.1,0.7-0.2
			c2.5,5.2,8.3,8.2,14.1,6.9c4.7-1.1,8.3-4.7,9.4-9.1c2.4,1.1,5.2,1.5,8.1,0.9c1.5-0.3,2.9-0.9,4.1-1.8c2.6,4.9,8.3,7.7,13.9,6.4
			C68.8,239,73,232.2,71.5,225.5z"/>
		
			<animateTransform  accumulate="none" additive="replace" attributeName="transform" calcMode="linear" dur="2.7777777777777772s" fill="remove" keyTimes="0;1" repeatCount="indefinite" restart="always" type="translate" values="0;256">
			</animateTransform>
	</g>
	<g transform="translate(112.647 0)">
		<path class="st2" d="M-184.5,225.5c-0.9-3.6-3.2-6.5-6.2-8.2c1.4-1.5,2.3-3.5,2.3-5.8c0-4.6-3.8-8.3-8.3-8.3
			c-2.8,0-5.2,1.4-6.7,3.4c-2.2-3.9-6.3-6.5-11-6.5c-2.9,0-5.5,0.9-7.7,2.7c-2.1-4-6.3-6.8-11.2-6.8c-4.8,0-9,2.8-11.1,6.7
			c-1.1-0.3-2.3-0.5-3.5-0.5c-7.6,0-13.7,6-13.7,13.6c0,5.2,2.9,9.7,7.1,12c-0.2,1.1-0.2,2.2,0.1,3.4c1,4.6,5.6,7.4,10.1,6.4
			c0.3-0.1,0.5-0.1,0.7-0.2c2.5,5.2,8.3,8.2,14.1,6.9c4.7-1.1,8.3-4.7,9.4-9.1c2.4,1.1,5.2,1.5,8.1,0.9c1.5-0.3,2.9-0.9,4.1-1.8
			c2.6,4.9,8.3,7.7,13.9,6.4C-187.2,239-183,232.2-184.5,225.5z"/>
		
			<animateTransform  accumulate="none" additive="replace" attributeName="transform" calcMode="linear" dur="2.7777777777777772s" fill="remove" keyTimes="0;1" repeatCount="indefinite" restart="always" type="translate" values="0;256">
			</animateTransform>
	</g>
	<g transform="translate(112.647 0)">
		<path class="st2" d="M222.8,76.8c0.3-0.9,0.4-1.9,0.5-2.9c0.4-7.3-5.2-13.5-12.5-13.9c-1.8-0.1-3.6,0.2-5.2,0.8
			c-1.3-7.7-7.7-13.8-15.8-14.2c-9.4-0.6-17.4,6.5-17.9,15.9c-0.1,0.9,0,2,0.1,2.8c-5.4,0.1-10,4.3-10.2,9.8c0,0.7,0,1.3,0.1,1.9
			c-0.3,0-0.4-0.1-0.7-0.1c-3.9-0.1-7.2,2.8-7.5,6.8c-0.3,4,2.8,7.2,6.7,7.5c0.7,0,1.3,0,1.9-0.2c2.2,2.5,6.9,4.4,12.6,4.7
			c3.2,0.2,6.2-0.2,8.6-0.9c1.5,1.5,3.7,2.7,6.3,2.8c3.4,0.2,6.4-1.4,8-3.7c1.8,0.9,4,1.5,6.4,1.6c3.9,0.3,7.4-0.9,9.5-2.6
			c1.7,1.5,4,2.4,6.5,2.6c5.8,0.3,10.6-3.7,10.9-8.9C231.4,81.9,227.8,77.8,222.8,76.8z"/>
		
			<animateTransform  accumulate="none" additive="replace" attributeName="transform" calcMode="linear" dur="2.7777777777777772s" fill="remove" keyTimes="0;1" repeatCount="indefinite" restart="always" type="translate" values="0;256">
			</animateTransform>
	</g>
	<g transform="translate(112.647 0)">
		<path class="st2" d="M-33.2,76.8c0.3-0.9,0.4-1.9,0.5-2.9c0.4-7.3-5.2-13.5-12.5-13.9c-1.8-0.1-3.6,0.2-5.2,0.8
			C-51.6,53.1-58,47-66.1,46.5c-9.4-0.6-17.4,6.5-17.9,15.9c-0.1,0.9,0,2,0.1,2.8c-5.4,0.1-10,4.3-10.2,9.8c0,0.7,0,1.3,0.1,1.9
			c-0.3,0-0.4-0.1-0.7-0.1c-3.9-0.1-7.2,2.8-7.5,6.8c-0.3,4,2.8,7.2,6.7,7.5c0.7,0,1.3,0,1.9-0.2c2.2,2.5,6.9,4.4,12.6,4.7
			c3.2,0.2,6.2-0.2,8.6-0.9c1.5,1.5,3.7,2.7,6.3,2.8c3.4,0.2,6.5-1.4,8-3.7c1.8,0.9,4,1.5,6.4,1.6c3.9,0.3,7.4-0.9,9.5-2.6
			c1.7,1.5,4,2.4,6.5,2.6c5.8,0.3,10.6-3.7,10.9-8.9C-24.6,81.9-28.2,77.8-33.2,76.8z"/>
		
			<animateTransform  accumulate="none" additive="replace" attributeName="transform" calcMode="linear" dur="2.7777777777777772s" fill="remove" keyTimes="0;1" repeatCount="indefinite" restart="always" type="translate" values="0;256">
			</animateTransform>
	</g>
	<g transform="translate(235.53 0)">
		<path class="st3" d="M109.8,112.5c-0.5-6.1-5.9-10.6-12.3-10.8c0-0.6,0-1.2,0-1.9c-0.7-7.8-8.2-13.5-16.6-12.8
			c-0.9,0.1-2,0.3-2.8,0.5c0-0.1,0-0.2,0-0.2c-1-11.2-11-19.6-22.3-18.6C45.7,69.7,38,77.9,37.3,87.7C25,88.9,16,98.9,17,110.1
			c1,11.4,11.8,19.6,24,18.5c3.5-0.3,6.6-1.3,9.5-2.9c5.2,3.8,12.8,5.9,21.2,5.1c7.1-0.6,13.5-3.3,17.9-7c2.4,1.4,5.4,2.3,8.5,2
			C105.1,124.9,110.3,119.1,109.8,112.5z"/>
		
			<animateTransform  accumulate="none" additive="replace" attributeName="transform" calcMode="linear" dur="2.083333333333333s" fill="remove" keyTimes="0;1" repeatCount="indefinite" restart="always" type="translate" values="0;256">
			</animateTransform>
	</g>
	<g transform="translate(235.53 0)">
		<path class="st3" d="M-146.2,112.5c-0.5-6.1-5.9-10.6-12.3-10.8c0-0.6,0-1.2,0-1.9c-0.7-7.8-8.2-13.5-16.6-12.8
			c-0.9,0.1-2,0.3-2.8,0.5c0-0.1,0-0.2,0-0.2c-1-11.2-11-19.6-22.3-18.6c-10.1,0.9-17.9,9.1-18.6,18.9C-231,88.9-240,98.9-239,110.1
			c1,11.4,11.8,19.6,24,18.5c3.5-0.3,6.6-1.3,9.5-2.9c5.2,3.8,12.8,5.9,21.2,5.1c7.1-0.6,13.5-3.3,17.9-7c2.4,1.4,5.4,2.3,8.5,2
			C-150.9,124.9-145.7,119.1-146.2,112.5z"/>
		
			<animateTransform  accumulate="none" additive="replace" attributeName="transform" calcMode="linear" dur="2.083333333333333s" fill="remove" keyTimes="0;1" repeatCount="indefinite" restart="always" type="translate" values="0;256">
			</animateTransform>
	</g>
</g>
</svg>
