<?xml version="1.0" encoding="utf-8"?>
<!-- Generator: Adobe Illustrator 25.4.1, SVG Export Plug-In . SVG Version: 6.00 Build 0)  -->
<svg version="1.1" id="Layer_1" xmlns="http://www.w3.org/2000/svg" xmlns:xlink="http://www.w3.org/1999/xlink" x="0px" y="0px"
	 viewBox="0 0 76.7 78.3" style="enable-background:new 0 0 76.7 78.3;" xml:space="preserve">
<style type="text/css">
	.st0{fill:none;stroke:#FFFFFF;stroke-width:4;stroke-miterlimit:10;}
</style>
<g id="Layer_2_00000181070415203672133920000008128845443596692614_">
	<g id="Layer_2-2">
		<path class="st0" d="M73.3,41.9h-8.9v32.6c0,1.6-1.3,2.8-2.8,2.8h-8.3c0-0.1,0-0.2,0-0.3V51.5c0-2.3-1.9-4.2-4.2-4.2H33.3
			c-2.3,0-4.2,1.9-4.2,4.2V77c0,0.1,0,0.2,0,0.3H17.7c-1.6,0-2.8-1.3-2.8-2.8V41.9H3.4c-1.3,0-2.4-1.1-2.4-2.4
			c0-0.6,0.2-1.2,0.7-1.7l35-36.1c0.9-1,2.5-1,3.4,0c0,0,0,0,0,0l35,36.1c0.9,1,0.9,2.5-0.1,3.4C74.6,41.6,74,41.9,73.3,41.9z"/>
		<path class="st0" d="M53.3,49.3v24.9c0,0.1,0,1.8,0,1.8c-0.1,1.6-2,1.3-4.2,1.3H33.3c-2.2,0-4,0.3-4.2-1.3c0-0.1,0-1.8,0-1.8V49.3
			c0-1.7,1.9-2,4.2-2h15.8C51.4,47.3,53.3,47.6,53.3,49.3z"/>
	</g>
</g>
</svg>
