<?xml version="1.0" encoding="utf-8"?>
<!-- Generator: Adobe Illustrator 25.4.1, SVG Export Plug-In . SVG Version: 6.00 Build 0)  -->
<svg version="1.1" id="Layer_1" xmlns="http://www.w3.org/2000/svg" xmlns:xlink="http://www.w3.org/1999/xlink" x="0px" y="0px"
	 viewBox="0 0 82 72.3" style="enable-background:new 0 0 82 72.3;" xml:space="preserve">
<style type="text/css">
	.st0{fill:#FFFFFF;}
</style>
<g id="Layer_2_00000155851822532024057900000008221581744908108722_">
	<g id="Layer_1-2">
		<circle cx="41" cy="36.1" r="50.7"/>
		<path class="st0" d="M40.9,61.4c-7,0-14,0.1-21.1,0c-2.8-0.1-6.6,1.3-7.7-3.2c-1-4-0.5-10.7,2.7-13.2c13.4-10.4,19-10,22.9-3.4
			c2.5,4.3,5.6,1.3,7.5-1.6c4-6.1,8.7-3.7,13.2-1.5c5.3,2.6,10.6,5.3,11.6,13.2c0.9,6.7-0.9,10.3-7.4,9.8
			C55.5,61,48.2,61.4,40.9,61.4z"/>
		<path class="st0" d="M40.8,31.7c-7.1-0.2-12.7-6-12.7-13.1c0.1-7.1,6-12.8,13.1-12.7C48.4,6,54,11.9,53.9,19l0,0
			C53.7,26.1,47.9,31.7,40.8,31.7z"/>
	</g>
</g>
</svg>
